<svg width="20" height="20" viewBox="0 0 20 20" fill="none" xmlns="http://www.w3.org/2000/svg">
<path d="M15.6305 0.00624847H7.08398C6.23582 0.0072822 5.42268 0.344674 4.82294 0.94442C4.22319 1.54417 3.8858 2.3573 3.88477 3.20547V5.17969C3.88477 5.42833 3.98354 5.66678 4.15935 5.8426C4.33517 6.01841 4.57363 6.11719 4.82227 6.11719C5.07091 6.11719 5.30936 6.01841 5.48518 5.8426C5.66099 5.66678 5.75977 5.42833 5.75977 5.17969V3.20547C5.76018 2.85439 5.89983 2.51781 6.14808 2.26956C6.39633 2.02131 6.73291 1.88166 7.08398 1.88125H15.6305C15.9813 1.88197 16.3175 2.02177 16.5655 2.27C16.8134 2.51822 16.9528 2.85463 16.9531 3.20547V16.7945C16.9528 17.1456 16.8133 17.4822 16.5651 17.7304C16.3169 17.9787 15.9803 18.1183 15.6293 18.1187H7.08398C6.73291 18.1183 6.39633 17.9787 6.14808 17.7304C5.89983 17.4822 5.76018 17.1456 5.75977 16.7945V14.5105C5.75977 14.2619 5.66099 14.0234 5.48518 13.8476C5.30936 13.6718 5.07091 13.573 4.82227 13.573C4.57363 13.573 4.33517 13.6718 4.15935 13.8476C3.98354 14.0234 3.88477 14.2619 3.88477 14.5105V16.7945C3.8858 17.6427 4.22319 18.4558 4.82294 19.0556C5.42268 19.6553 6.23582 19.9927 7.08398 19.9937H15.6305C16.4784 19.9923 17.2911 19.6547 17.8905 19.055C18.4899 18.4553 18.8271 17.6424 18.8281 16.7945V3.20547C18.8271 2.35757 18.4899 1.54467 17.8905 0.944971C17.2911 0.34527 16.4784 0.00769548 15.6305 0.00624847Z" fill="#F5F9FF"/>
<path d="M14.2438 9.31758L10.9078 5.98359C10.7342 5.80997 10.4995 5.71136 10.254 5.70895C10.0085 5.70654 9.77187 5.80052 9.59492 5.9707C9.21602 6.33515 9.225 6.95234 9.59687 7.32422L11.334 9.0625H2.10938C1.86073 9.0625 1.62228 9.16127 1.44646 9.33709C1.27065 9.5129 1.17188 9.75136 1.17188 10C1.17188 10.2486 1.27065 10.4871 1.44646 10.6629C1.62228 10.8387 1.86073 10.9375 2.10938 10.9375H11.3344L9.58047 12.6914C9.40461 12.8672 9.30579 13.1057 9.30575 13.3544C9.30572 13.603 9.40446 13.8415 9.58027 14.0174C9.75608 14.1932 9.99455 14.2921 10.2432 14.2921C10.4919 14.2921 10.7304 14.1934 10.9062 14.0176L14.2438 10.6812C14.3334 10.5918 14.4045 10.4855 14.4531 10.3685C14.5016 10.2515 14.5266 10.1261 14.5266 9.99941C14.5266 9.87275 14.5016 9.74733 14.4531 9.63033C14.4045 9.51333 14.3334 9.40705 14.2438 9.31758Z" fill="#F5F9FF"/>
</svg>
