<svg width="155" height="42" viewBox="0 0 155 42" fill="none" xmlns="http://www.w3.org/2000/svg">
<path d="M47.7318 32.7517H46.2934V34.099H47.8971V34.5149H45.8304V30.7723H47.831V31.1881H46.2934V32.3525H47.7359L47.7318 32.7517Z" fill="#253D8F"/>
<path d="M48.8643 33.9119C49.1243 34.0681 49.4212 34.1514 49.724 34.1531C50.2118 34.1531 50.5011 33.8952 50.5011 33.5168C50.5011 33.1384 50.3027 32.9679 49.8026 32.7766C49.1991 32.5604 48.823 32.2443 48.823 31.7204C48.823 31.1964 49.3024 30.7099 50.0216 30.7099C50.3082 30.699 50.5927 30.762 50.8483 30.8929L50.716 31.2837C50.5002 31.1663 50.2587 31.1048 50.0134 31.1049C49.5091 31.1049 49.3148 31.4085 49.3148 31.6622C49.3148 32.0115 49.5422 32.182 50.0506 32.3816C50.6788 32.6269 50.9971 32.9305 50.9971 33.4752C50.9971 34.02 50.5838 34.5481 49.6992 34.5481C49.3687 34.5525 49.0426 34.4708 48.7527 34.3111L48.8643 33.9119Z" fill="#253D8F"/>
<path d="M52.7579 31.1881H51.6295V30.7723H54.374V31.1881H53.2415V34.5149H52.7579V31.1881Z" fill="#253D8F"/>
<path d="M55.3866 33.3255L55.0022 34.5149H54.5062L55.7462 30.7723H56.3249L57.5897 34.5149H57.0772L56.6638 33.3422L55.3866 33.3255ZM56.6018 32.9513L56.2381 31.8784C56.1554 31.6331 56.1017 31.4127 56.0438 31.1964C55.9901 31.4168 55.9281 31.6455 55.8578 31.8701L55.4941 32.9471L56.6018 32.9513Z" fill="#253D8F"/>
<path d="M58.5693 30.818C58.8583 30.7638 59.1517 30.7373 59.4456 30.739C59.8056 30.7057 60.1657 30.8015 60.4624 31.0093C60.5631 31.0854 60.644 31.1849 60.698 31.2994C60.752 31.4138 60.7775 31.5398 60.7724 31.6664C60.7688 31.8541 60.706 32.0358 60.5931 32.1853C60.4802 32.3348 60.323 32.4443 60.1441 32.498C60.359 32.542 60.5523 32.6589 60.6915 32.8293C60.8308 32.9997 60.9075 33.2131 60.9088 33.4337C60.911 33.5736 60.8843 33.7124 60.8302 33.8413C60.7761 33.9701 60.6959 34.0863 60.5947 34.1822C60.2246 34.4529 59.7686 34.5772 59.3133 34.5315C59.0646 34.5328 58.8161 34.5176 58.5693 34.4858V30.818ZM59.0488 32.3442H59.4828C59.9871 32.3442 60.2847 32.078 60.2847 31.7204C60.2847 31.2838 59.954 31.1133 59.458 31.1133C59.3195 31.1104 59.181 31.1216 59.0447 31.1466L59.0488 32.3442ZM59.0488 34.1323C59.1858 34.1504 59.324 34.1573 59.4621 34.1531C59.9581 34.1531 60.4128 33.9701 60.4128 33.4295C60.4128 32.8889 59.9788 32.7101 59.4539 32.7101H59.0405L59.0488 34.1323Z" fill="#253D8F"/>
<path d="M61.9587 30.7723H62.4382V34.099H64.0213V34.5149H61.9546L61.9587 30.7723Z" fill="#253D8F"/>
<path d="M65.4472 30.7723V34.5149H64.9678V30.7723H65.4472Z" fill="#253D8F"/>
<path d="M66.6293 33.9119C66.8893 34.0681 67.1862 34.1514 67.489 34.1531C67.9768 34.1531 68.2661 33.8952 68.2661 33.5168C68.2661 33.1384 68.0677 32.9679 67.5676 32.7766C66.9641 32.5604 66.588 32.2443 66.588 31.7204C66.588 31.1964 67.0674 30.7099 67.7866 30.7099C68.0732 30.699 68.3578 30.762 68.6133 30.8929L68.481 31.2837C68.2652 31.1663 68.0237 31.1048 67.7784 31.1049C67.2741 31.1049 67.0798 31.4085 67.0798 31.6622C67.0798 32.0115 67.3072 32.182 67.8156 32.3816C68.4438 32.6269 68.7621 32.9305 68.7621 33.4752C68.7621 34.02 68.3488 34.5481 67.4642 34.5481C67.1337 34.5525 66.8076 34.4708 66.5177 34.3111L66.6293 33.9119Z" fill="#253D8F"/>
<path d="M70.2998 30.7723V32.3317H72.0936V30.7723H72.5772V34.5149H72.0936V32.7683H70.2998V34.5149H69.8203V30.7723H70.2998Z" fill="#253D8F"/>
<path d="M75.7392 32.7517H74.2967V34.099H75.9004V34.5149H73.8337V30.7723H75.8343V31.1881H74.3091V32.3525H75.7516L75.7392 32.7517Z" fill="#253D8F"/>
<path d="M76.9379 30.818C77.2744 30.7663 77.6143 30.7399 77.9547 30.739C78.4934 30.6911 79.03 30.8517 79.4551 31.1881C79.633 31.3602 79.7716 31.569 79.8615 31.8002C79.9514 32.0313 79.9905 32.2793 79.9759 32.5271C79.9889 32.7927 79.9484 33.0582 79.8568 33.3076C79.7651 33.557 79.6243 33.7852 79.4427 33.9784C78.9835 34.3696 78.3892 34.5624 77.7894 34.5149C77.4994 34.516 77.2096 34.5007 76.9214 34.4691L76.9379 30.818ZM77.4174 34.099C77.5776 34.1217 77.7393 34.1314 77.901 34.1281C78.1139 34.1526 78.3295 34.1284 78.5318 34.0575C78.7342 33.9866 78.918 33.8707 79.0697 33.7185C79.2214 33.5663 79.3371 33.3816 79.4081 33.1782C79.4791 32.9749 79.5037 32.758 79.4799 32.5438C79.4799 31.6622 78.9922 31.105 77.9795 31.105C77.7909 31.1018 77.6025 31.1186 77.4174 31.1549V34.099Z" fill="#253D8F"/>
<path d="M83.4726 31.3544L82.8526 31.6913L82.7576 31.3212L83.5388 30.9053H83.9521V34.5148H83.485L83.4726 31.3544Z" fill="#253D8F"/>
<path d="M85.9362 34.1572C86.0654 34.1698 86.1955 34.1698 86.3247 34.1572C86.6042 34.1223 86.8659 34.0002 87.0728 33.8079C87.3357 33.554 87.5023 33.2158 87.544 32.8515C87.444 32.9743 87.3177 33.0729 87.1746 33.1399C87.0315 33.2068 86.8752 33.2404 86.7174 33.2382C86.5746 33.2414 86.4327 33.2147 86.3006 33.1599C86.1686 33.105 86.0493 33.0233 85.9502 32.9197C85.8512 32.8162 85.7746 32.6931 85.7252 32.5582C85.6758 32.4234 85.6548 32.2797 85.6634 32.1363C85.6595 31.97 85.6887 31.8046 85.7493 31.6499C85.8099 31.4952 85.9006 31.3542 86.0162 31.2352C86.1317 31.1163 86.2697 31.0218 86.4221 30.9573C86.5744 30.8928 86.7381 30.8596 86.9034 30.8596C87.635 30.8596 88.0855 31.4584 88.0855 32.3774C88.1023 32.6862 88.0564 32.9952 87.9505 33.2854C87.8446 33.5757 87.681 33.8412 87.4696 34.0658C87.169 34.3334 86.7875 34.4916 86.3867 34.5149C86.2392 34.5395 86.0897 34.5492 85.9403 34.544L85.9362 34.1572ZM86.1139 32.078C86.1022 32.1754 86.1112 32.2742 86.1404 32.3678C86.1695 32.4614 86.2182 32.5477 86.2831 32.6209C86.3481 32.694 86.4277 32.7525 86.5169 32.7922C86.606 32.832 86.7025 32.8522 86.8 32.8515C86.9398 32.8555 87.0782 32.8227 87.2014 32.7563C87.3247 32.69 87.4285 32.5923 87.5027 32.4731C87.535 32.4193 87.5508 32.3571 87.5482 32.2943C87.5482 31.6788 87.325 31.2089 86.8166 31.2089C86.3867 31.2131 86.1098 31.579 86.1098 32.0864L86.1139 32.078Z" fill="#253D8F"/>
<path d="M88.8459 33.5875C88.8488 33.372 88.9191 33.1629 89.0467 32.9897C89.1743 32.8166 89.3528 32.6882 89.5569 32.6228C89.3939 32.5596 89.2531 32.4492 89.1523 32.3057C89.0515 32.1621 88.9953 31.9917 88.9906 31.816C88.9966 31.6789 89.0305 31.5445 89.0901 31.421C89.1496 31.2975 89.2337 31.1876 89.3371 31.098C89.4404 31.0084 89.5609 30.941 89.6912 30.9C89.8214 30.859 89.9585 30.8453 90.0942 30.8596C90.2212 30.8433 90.3502 30.8539 90.4729 30.8905C90.5956 30.9272 90.7094 30.9891 90.807 31.0724C90.9046 31.1558 90.9838 31.2586 91.0397 31.3745C91.0957 31.4903 91.127 31.6166 91.1317 31.7453C91.127 31.9269 91.0686 32.103 90.9641 32.2511C90.8596 32.3992 90.7136 32.5127 90.5447 32.577C90.7474 32.6353 90.9264 32.7569 91.0558 32.9244C91.1851 33.0919 91.258 33.2965 91.2639 33.5085C91.2564 33.6588 91.2184 33.8059 91.1523 33.9409C91.0863 34.0759 90.9935 34.196 90.8798 34.2937C90.766 34.3914 90.6337 34.4647 90.4908 34.5092C90.3479 34.5536 90.1975 34.5683 90.0487 34.5523C89.2799 34.5606 88.8459 34.099 88.8459 33.5875ZM90.7721 33.5667C90.7721 33.1301 90.4704 32.918 89.9868 32.7808C89.8112 32.8111 89.6514 32.9012 89.534 33.036C89.4167 33.1707 89.3488 33.3419 89.3419 33.521C89.3387 33.6148 89.3553 33.7083 89.3905 33.7953C89.4258 33.8822 89.4789 33.9607 89.5464 34.0255C89.614 34.0903 89.6944 34.14 89.7824 34.1713C89.8704 34.2026 89.964 34.2148 90.057 34.2071C90.1466 34.2158 90.237 34.2056 90.3225 34.1772C90.4079 34.1488 90.4866 34.1028 90.5535 34.0422C90.6203 33.9816 90.6739 33.9077 90.7108 33.8251C90.7478 33.7425 90.7672 33.6531 90.768 33.5626L90.7721 33.5667ZM89.4411 31.7703C89.4411 32.1321 89.7098 32.3234 90.1231 32.4356C90.2723 32.4014 90.4064 32.3191 90.5048 32.2013C90.6033 32.0835 90.6609 31.9365 90.6687 31.7828C90.6746 31.7017 90.6627 31.6204 90.634 31.5444C90.6053 31.4685 90.5604 31.3998 90.5025 31.3431C90.4446 31.2865 90.3751 31.2433 90.2989 31.2165C90.2227 31.1897 90.1415 31.18 90.0611 31.1881C89.9815 31.1805 89.9012 31.1899 89.8253 31.2156C89.7495 31.2412 89.6799 31.2827 89.6211 31.3372C89.5622 31.3917 89.5154 31.4581 89.4837 31.532C89.452 31.6059 89.4361 31.6856 89.437 31.7661L89.4411 31.7703Z" fill="#253D8F"/>
<path d="M94.1615 31.2463C94.0398 31.2405 93.9179 31.2475 93.7977 31.2671C93.4798 31.3119 93.1855 31.4615 92.9611 31.6925C92.7367 31.9235 92.5949 32.2229 92.5577 32.5437C92.7022 32.3614 92.9005 32.2301 93.1241 32.1688C93.3477 32.1075 93.5849 32.1194 93.8013 32.2028C94.0177 32.2861 94.2021 32.4367 94.3278 32.6326C94.4535 32.8284 94.514 33.0595 94.5004 33.2923C94.5065 33.4532 94.4804 33.6137 94.4236 33.7643C94.3668 33.9149 94.2805 34.0524 94.1699 34.1688C94.0592 34.2852 93.9264 34.378 93.7794 34.4417C93.6324 34.5054 93.4742 34.5388 93.3141 34.5398C92.5494 34.5398 92.0493 33.941 92.0493 33.0053C92.0391 32.7084 92.0872 32.4123 92.1907 32.134C92.2942 31.8558 92.4513 31.6008 92.6528 31.3835C92.9762 31.0864 93.3898 30.9077 93.8267 30.8762C93.9429 30.8576 94.0603 30.8478 94.178 30.8471L94.1615 31.2463ZM94.025 33.3255C94.0394 33.2207 94.031 33.1139 94.0004 33.0127C93.9698 32.9114 93.9178 32.818 93.8478 32.739C93.7779 32.6599 93.6917 32.5971 93.5953 32.5547C93.4989 32.5124 93.3945 32.4916 93.2893 32.4938C93.1429 32.496 92.9999 32.5386 92.8759 32.6171C92.752 32.6956 92.6519 32.8069 92.5867 32.9388C92.5495 33.0046 92.5309 33.0794 92.5329 33.155C92.5329 33.7455 92.814 34.1863 93.3183 34.1863C93.744 34.1822 94.025 33.837 94.025 33.3214V33.3255Z" fill="#253D8F"/>
<path d="M48.7981 12.9618V17.5028H54.7666V19.8564H48.7981V26.094H46.161V10.5416H55.585V12.9618H48.7981Z" fill="#253D8F"/>
<path d="M66.34 26.0899L64.8437 22.5262H58.7305L57.2343 26.0899H54.5145L61.6404 10.3295H62L69.1052 26.0899H66.34ZM61.7933 15.2281L59.6027 20.4262H63.9881L61.7933 15.2281Z" fill="#253D8F"/>
<path d="M78.9467 26.0899L75.5739 20.4885C75.3011 20.5093 75.0448 20.5093 74.7472 20.5093C74.243 20.5093 73.7139 20.4885 73.2096 20.4677V26.0899H70.556V10.7037C71.9052 10.5345 73.2636 10.4498 74.6232 10.4501C79.0087 10.4501 80.9472 12.5917 80.9472 15.3487C80.9574 16.317 80.6747 17.2656 80.1365 18.0684C79.5983 18.8713 78.8302 19.4905 77.934 19.8439L81.9806 26.0816L78.9467 26.0899ZM74.9828 12.8121C74.389 12.7982 73.7953 12.8414 73.2096 12.941V18.2429C73.713 18.3028 74.2197 18.3306 74.7266 18.3261C77.0247 18.3261 78.1862 17.2449 78.1862 15.461C78.1696 13.8932 76.9875 12.8121 74.9622 12.8121H74.9828Z" fill="#253D8F"/>
<path d="M94.5913 26.0899L93.0951 22.5262H86.9819L85.4856 26.0899H82.7659L89.8917 10.3295H90.272L97.3772 26.0899H94.5913ZM90.0447 15.2281L87.854 20.4262H92.2395L90.0447 15.2281Z" fill="#253D8F"/>
<path d="M98.7866 26.0899V10.5416H101.424V23.6738H108.211V26.0899H98.7866Z" fill="#253D8F"/>
<path d="M110.067 26.0899V10.5416H112.704V23.6738H119.495V26.0899H110.067Z" fill="#253D8F"/>
<path d="M127.72 26.3477C123.252 26.3477 119.982 22.9336 119.982 18.3303C119.982 13.7269 123.397 10.2921 127.869 10.2921C132.341 10.2921 135.598 13.7227 135.598 18.3261C135.598 22.9295 132.184 26.3477 127.72 26.3477ZM127.803 12.6665C124.851 12.6665 122.805 15.0867 122.805 18.3303C122.805 21.5738 124.827 23.9899 127.799 23.9899C130.77 23.9899 132.759 21.5489 132.759 18.3261C132.759 15.1033 130.729 12.6665 127.799 12.6665H127.803Z" fill="#253D8F"/>
<path d="M149.705 26.3893L140.025 16.1222V26.1024H137.392V10.3295L137.805 10.2463L147.366 20.3762V10.5416H150.003V26.3436L149.705 26.3893Z" fill="#253D8F"/>
<path d="M39.3576 20.7921L33.9429 19.6069C33.6263 16.6601 32.3178 13.9107 30.2346 11.8148C28.1513 9.71894 25.4185 8.40253 22.4895 8.08394L21.3115 2.63641C21.3019 2.58838 21.276 2.54517 21.2384 2.51413C21.2007 2.48309 21.1535 2.46613 21.1048 2.46613C21.0561 2.46613 21.0089 2.48309 20.9712 2.51413C20.9336 2.54517 20.9077 2.58838 20.8981 2.63641L19.7201 8.08394C16.8005 8.3999 14.075 9.70732 11.9929 11.7907C9.91087 13.874 8.59657 16.6089 8.26667 19.5445L2.852 20.7921C2.80426 20.8017 2.76131 20.8277 2.73045 20.8656C2.6996 20.9035 2.68274 20.951 2.68274 21C2.68274 21.049 2.6996 21.0965 2.73045 21.1344C2.76131 21.1723 2.80426 21.1982 2.852 21.2079L8.26667 22.393C8.58334 25.3399 9.89181 28.0893 11.975 30.1851C14.0583 32.281 16.7911 33.5974 19.7201 33.916L20.8981 39.3635C20.9077 39.4116 20.9336 39.4548 20.9712 39.4858C21.0089 39.5169 21.0561 39.5338 21.1048 39.5338C21.1535 39.5338 21.2007 39.5169 21.2384 39.4858C21.276 39.4548 21.3019 39.4116 21.3115 39.3635L22.4895 33.916C25.4076 33.5983 28.1312 32.2901 30.2116 30.2069C32.292 28.1237 33.6051 25.3898 33.9347 22.4554L39.3576 21.2079C39.4053 21.1982 39.4483 21.1723 39.4791 21.1344C39.51 21.0965 39.5269 21.049 39.5269 21C39.5269 20.951 39.51 20.9035 39.4791 20.8656C39.4483 20.8277 39.4053 20.8017 39.3576 20.7921ZM31.7357 19.1287L26.1557 17.9061L28.9085 13.5065C30.3848 15.0566 31.369 17.0138 31.7357 19.1287ZM24.49 17.3406L24.2585 16.2677L27.6933 14.1386L24.49 17.3406ZM28.5613 13.153L24.1965 15.9766L22.9565 10.3045C25.065 10.6715 27.0166 11.6633 28.5613 13.153ZM19.2365 10.3045L17.9965 15.9725L13.64 13.153C15.1825 11.6648 17.131 10.6731 19.2365 10.3045ZM17.36 17.4653L16.3928 17.6857L14.3261 14.4297L17.36 17.4653ZM13.3176 13.4857L16.0373 17.7772L10.4863 19.0455C10.8645 16.9582 11.8449 15.029 13.3052 13.4982L13.3176 13.4857ZM10.4739 22.8713L16.0539 24.0938L13.3011 28.4976C11.824 26.9464 10.8398 24.9876 10.4739 22.8713ZM17.7196 24.6594L17.9511 25.7323L14.5287 27.8614L17.7196 24.6594ZM13.64 28.8469L18.0048 26.0233L19.2448 31.6954C17.1363 31.3285 15.1847 30.3366 13.64 28.8469ZM22.9648 31.6954L24.2048 26.0275L28.5613 28.8469C27.0211 30.3337 25.0757 31.3253 22.9731 31.6954H22.9648ZM24.862 24.5346L25.8292 24.3142L27.8959 27.5703L24.862 24.5346ZM28.9044 28.5142L26.1723 24.2227L31.7233 22.9544C31.3451 25.0418 30.3647 26.971 28.9044 28.5018V28.5142ZM24.2544 20.7089C24.2544 20.8045 24.2544 20.9043 24.2544 21C24.2554 21.4796 24.1485 21.9532 23.9416 22.3853C23.7347 22.8175 23.4333 23.1968 23.0599 23.495L24.0229 24.3932L21.3776 36.2614V24.1687C21.2825 24.1687 21.1833 24.1687 21.0883 24.1687C20.6235 24.1694 20.1644 24.0669 19.7435 23.8685C19.3227 23.6701 18.9506 23.3807 18.6537 23.021L17.6369 24.0772L5.8156 21.2911H17.9552C17.9552 21.1954 17.9552 21.0956 17.9552 21C17.9545 20.5324 18.0564 20.0705 18.2536 19.6471C18.4508 19.2237 18.7384 18.8493 19.096 18.5507L18.1867 17.6317L20.832 5.74691V17.8313C20.9271 17.8313 21.0263 17.8313 21.1213 17.8313C21.5861 17.8306 22.0452 17.9331 22.4661 18.1314C22.8869 18.3298 23.259 18.6192 23.5559 18.979L24.5933 17.9352L36.4147 20.7214L24.2544 20.7089Z" fill="#253D8F"/>
</svg>
