<svg width="108" height="107" viewBox="0 0 108 107" fill="none" xmlns="http://www.w3.org/2000/svg">
<path d="M106.712 52.7961L90.9571 49.3818C90.0357 40.8921 86.2284 32.9712 80.1669 26.9331C74.1054 20.895 66.1538 17.1025 57.6312 16.1847L54.2036 0.490591C54.1757 0.352213 54.1005 0.227733 53.9909 0.1383C53.8813 0.0488681 53.7439 0 53.6023 0C53.4606 0 53.3232 0.0488681 53.2136 0.1383C53.104 0.227733 53.0288 0.352213 53.0009 0.490591L49.5733 16.1847C41.078 17.0949 33.1477 20.8615 27.0896 26.8635C21.0315 32.8656 17.2073 40.7447 16.2474 49.2021L0.492494 52.7961C0.353579 52.824 0.228616 52.8988 0.138837 53.008C0.0490576 53.1172 0 53.254 0 53.3951C0 53.5363 0.0490576 53.6731 0.138837 53.7823C0.228616 53.8915 0.353579 53.9663 0.492494 53.9942L16.2474 57.4085C17.1688 65.8982 20.9761 73.8191 27.0376 79.8572C33.0991 85.8953 41.0507 89.6878 49.5733 90.6056L53.0009 106.3C53.0288 106.438 53.104 106.563 53.2136 106.652C53.3232 106.741 53.4606 106.79 53.6023 106.79C53.7439 106.79 53.8813 106.741 53.9909 106.652C54.1005 106.563 54.1757 106.438 54.2036 106.3L57.6312 90.6056C66.1221 89.6903 74.0469 85.9214 80.1001 79.9198C86.1534 73.9183 89.9741 66.042 90.933 57.5882L106.712 53.9942C106.851 53.9663 106.976 53.8915 107.066 53.7823C107.155 53.6731 107.204 53.5363 107.204 53.3951C107.204 53.254 107.155 53.1172 107.066 53.008C106.976 52.8988 106.851 52.824 106.712 52.7961ZM84.5348 48.0041L68.2988 44.4819L76.3086 31.8068C80.6042 36.2726 83.4679 41.9112 84.5348 48.0041ZM63.4521 42.8526L62.7786 39.7617L72.7728 33.6278L63.4521 42.8526ZM75.2984 30.7885L62.5982 38.9231L58.9902 22.5821C65.1252 23.6392 70.8037 26.4967 75.2984 30.7885ZM48.1662 22.5821L44.5582 38.9111L31.8821 30.7885C36.3702 26.501 42.0398 23.6438 48.1662 22.5821ZM42.7061 43.212L39.8919 43.8469L33.8785 34.4664L42.7061 43.212ZM30.944 31.7469L38.8576 44.1105L22.7057 47.7645C23.8064 41.751 26.6589 36.193 30.9079 31.7829L30.944 31.7469ZM22.6697 58.7862L38.9057 62.3084L30.8959 74.9954C26.5982 70.5264 23.7344 64.8834 22.6697 58.7862ZM43.7524 63.9377L44.4259 67.0286L34.4678 73.1625L43.7524 63.9377ZM31.8821 76.0018L44.5823 67.8672L48.1903 84.2082C42.0553 83.1511 36.3767 80.2936 31.8821 76.0018ZM59.0143 84.2082L62.6223 67.8792L75.2984 76.0018C70.8168 80.2851 65.1562 83.142 59.0383 84.2082H59.0143ZM64.5345 63.5783L67.3487 62.9434L73.3621 72.3239L64.5345 63.5783ZM76.2966 75.0434L68.3469 62.6798L84.4988 59.0258C83.3981 65.0393 80.5456 70.5973 76.2966 75.0074V75.0434ZM62.7666 52.5565C62.7666 52.8321 62.7666 53.1196 62.7666 53.3951C62.7695 54.7769 62.4583 56.1414 61.8564 57.3863C61.2544 58.6312 60.3773 59.7242 59.2909 60.5833L62.0931 63.171L54.396 97.3625V62.5241C54.1194 62.5241 53.8308 62.5241 53.5541 62.5241C52.2019 62.5261 50.8659 62.2308 49.6414 61.6593C48.4169 61.0877 47.3342 60.2539 46.4704 59.2175L43.5119 62.2605L9.11561 54.2338H44.4379C44.4379 53.9582 44.4379 53.6707 44.4379 53.3951C44.4359 52.0481 44.7323 50.7173 45.3061 49.4975C45.8799 48.2778 46.7169 47.1992 47.7573 46.3388L45.1114 43.6912L52.8085 9.45178V44.2662C53.0851 44.2662 53.3737 44.2662 53.6504 44.2662C55.0026 44.2642 56.3386 44.5595 57.5631 45.131C58.7876 45.7026 59.8703 46.5363 60.7341 47.5728L63.7528 44.5657L98.149 52.5925L62.7666 52.5565Z" fill="#253D8F"/>
</svg>
